<svg width="173" height="36" viewBox="0 0 173 36" fill="none" xmlns="http://www.w3.org/2000/svg">
<path d="M60.7614 32V17.4545H65.8466C66.8598 17.4545 67.6955 17.6297 68.3537 17.9801C69.0118 18.3258 69.5019 18.7921 69.8239 19.3793C70.1458 19.9616 70.3068 20.608 70.3068 21.3182C70.3068 21.9432 70.1955 22.4593 69.973 22.8665C69.7552 23.2737 69.4664 23.5956 69.1065 23.8324C68.7514 24.0691 68.3655 24.2443 67.9489 24.358V24.5C68.3939 24.5284 68.8414 24.6847 69.2912 24.9688C69.741 25.2528 70.1174 25.66 70.4205 26.1903C70.7235 26.7206 70.875 27.3693 70.875 28.1364C70.875 28.8655 70.7093 29.5213 70.3778 30.1037C70.0464 30.6861 69.5232 31.1477 68.8082 31.4886C68.0933 31.8295 67.1629 32 66.017 32H60.7614ZM62.5227 30.4375H66.017C67.1676 30.4375 67.9844 30.215 68.4673 29.7699C68.955 29.3201 69.1989 28.7756 69.1989 28.1364C69.1989 27.6439 69.0734 27.1894 68.8224 26.7727C68.5715 26.3513 68.214 26.0152 67.75 25.7642C67.286 25.5085 66.7367 25.3807 66.1023 25.3807H62.5227V30.4375ZM62.5227 23.8466H65.7898C66.3201 23.8466 66.7983 23.7424 67.2244 23.5341C67.6553 23.3258 67.9962 23.0322 68.2472 22.6534C68.5028 22.2746 68.6307 21.8295 68.6307 21.3182C68.6307 20.679 68.4081 20.1368 67.9631 19.6918C67.518 19.242 66.8125 19.017 65.8466 19.017H62.5227V23.8466ZM75.218 17.4545V32H73.5419V17.4545H75.218ZM78.288 32V21.0909H79.9641V32H78.288ZM79.1403 19.2727C78.8136 19.2727 78.5318 19.1615 78.2951 18.9389C78.0631 18.7164 77.9471 18.4489 77.9471 18.1364C77.9471 17.8239 78.0631 17.5563 78.2951 17.3338C78.5318 17.1113 78.8136 17 79.1403 17C79.467 17 79.7463 17.1113 79.9783 17.3338C80.2151 17.5563 80.3335 17.8239 80.3335 18.1364C80.3335 18.4489 80.2151 18.7164 79.9783 18.9389C79.7463 19.1615 79.467 19.2727 79.1403 19.2727ZM90.7614 23.5341L89.2557 23.9602C89.161 23.7093 89.0213 23.4654 88.8366 23.2287C88.6567 22.9872 88.4105 22.7884 88.098 22.6321C87.7855 22.4759 87.3854 22.3977 86.8977 22.3977C86.2301 22.3977 85.6738 22.5516 85.2287 22.8594C84.7884 23.1624 84.5682 23.5483 84.5682 24.017C84.5682 24.4337 84.7197 24.7628 85.0227 25.0043C85.3258 25.2457 85.7992 25.447 86.4432 25.608L88.0625 26.0057C89.0379 26.2424 89.7647 26.6046 90.2429 27.0923C90.7211 27.5753 90.9602 28.1979 90.9602 28.9602C90.9602 29.5852 90.7803 30.1439 90.4205 30.6364C90.0653 31.1288 89.5682 31.517 88.929 31.8011C88.2898 32.0852 87.5464 32.2273 86.6989 32.2273C85.5862 32.2273 84.6652 31.9858 83.9361 31.5028C83.2069 31.0199 82.7453 30.3144 82.5511 29.3864L84.142 28.9886C84.2936 29.5758 84.58 30.0161 85.0014 30.3097C85.4276 30.6032 85.9839 30.75 86.6705 30.75C87.4517 30.75 88.072 30.5843 88.5312 30.2528C88.9953 29.9167 89.2273 29.5142 89.2273 29.0455C89.2273 28.6667 89.0947 28.3494 88.8295 28.0938C88.5644 27.8333 88.1572 27.6392 87.608 27.5114L85.7898 27.0852C84.7907 26.8485 84.0568 26.4815 83.5881 25.9844C83.1241 25.4825 82.892 24.8551 82.892 24.1023C82.892 23.4867 83.0649 22.9422 83.4105 22.4688C83.7609 21.9953 84.2367 21.6236 84.8381 21.3537C85.4441 21.0838 86.1307 20.9489 86.8977 20.9489C87.9773 20.9489 88.8248 21.1856 89.4403 21.6591C90.0606 22.1326 90.5009 22.7576 90.7614 23.5341ZM101.211 23.5341L99.7049 23.9602C99.6102 23.7093 99.4705 23.4654 99.2859 23.2287C99.1059 22.9872 98.8597 22.7884 98.5472 22.6321C98.2347 22.4759 97.8346 22.3977 97.3469 22.3977C96.6793 22.3977 96.123 22.5516 95.6779 22.8594C95.2376 23.1624 95.0174 23.5483 95.0174 24.017C95.0174 24.4337 95.1689 24.7628 95.4719 25.0043C95.775 25.2457 96.2485 25.447 96.8924 25.608L98.5117 26.0057C99.4871 26.2424 100.214 26.6046 100.692 27.0923C101.17 27.5753 101.409 28.1979 101.409 28.9602C101.409 29.5852 101.23 30.1439 100.87 30.6364C100.515 31.1288 100.017 31.517 99.3782 31.8011C98.739 32.0852 97.9956 32.2273 97.1481 32.2273C96.0354 32.2273 95.1145 31.9858 94.3853 31.5028C93.6561 31.0199 93.1945 30.3144 93.0004 29.3864L94.5913 28.9886C94.7428 29.5758 95.0292 30.0161 95.4506 30.3097C95.8768 30.6032 96.4331 30.75 97.1197 30.75C97.9009 30.75 98.5212 30.5843 98.9805 30.2528C99.4445 29.9167 99.6765 29.5142 99.6765 29.0455C99.6765 28.6667 99.5439 28.3494 99.2788 28.0938C99.0136 27.8333 98.6064 27.6392 98.0572 27.5114L96.239 27.0852C95.2399 26.8485 94.506 26.4815 94.0373 25.9844C93.5733 25.4825 93.3413 24.8551 93.3413 24.1023C93.3413 23.4867 93.5141 22.9422 93.8597 22.4688C94.2101 21.9953 94.686 21.6236 95.2873 21.3537C95.8933 21.0838 96.5799 20.9489 97.3469 20.9489C98.4265 20.9489 99.274 21.1856 99.8896 21.6591C100.51 22.1326 100.95 22.7576 101.211 23.5341Z" fill="white"/>
<path d="M104.761 32V17.4545H106.523V23.9318H114.278V17.4545H116.04V32H114.278V25.4943H106.523V32H104.761ZM131.839 24.7273C131.839 26.2614 131.562 27.5871 131.008 28.7045C130.454 29.822 129.694 30.6837 128.728 31.2898C127.762 31.8958 126.659 32.1989 125.418 32.1989C124.178 32.1989 123.075 31.8958 122.109 31.2898C121.143 30.6837 120.383 29.822 119.829 28.7045C119.275 27.5871 118.998 26.2614 118.998 24.7273C118.998 23.1932 119.275 21.8674 119.829 20.75C120.383 19.6326 121.143 18.7708 122.109 18.1648C123.075 17.5587 124.178 17.2557 125.418 17.2557C126.659 17.2557 127.762 17.5587 128.728 18.1648C129.694 18.7708 130.454 19.6326 131.008 20.75C131.562 21.8674 131.839 23.1932 131.839 24.7273ZM130.134 24.7273C130.134 23.4678 129.924 22.4048 129.502 21.5384C129.085 20.6719 128.52 20.0161 127.805 19.571C127.094 19.1259 126.299 18.9034 125.418 18.9034C124.538 18.9034 123.74 19.1259 123.025 19.571C122.315 20.0161 121.749 20.6719 121.327 21.5384C120.911 22.4048 120.702 23.4678 120.702 24.7273C120.702 25.9867 120.911 27.0497 121.327 27.9162C121.749 28.7827 122.315 29.4384 123.025 29.8835C123.74 30.3286 124.538 30.5511 125.418 30.5511C126.299 30.5511 127.094 30.3286 127.805 29.8835C128.52 29.4384 129.085 28.7827 129.502 27.9162C129.924 27.0497 130.134 25.9867 130.134 24.7273ZM144.346 17.4545H146.107V27.0852C146.107 28.0795 145.873 28.9673 145.404 29.7486C144.94 30.5251 144.284 31.1383 143.437 31.5881C142.589 32.0331 141.595 32.2557 140.454 32.2557C139.313 32.2557 138.318 32.0331 137.471 31.5881C136.623 31.1383 135.965 30.5251 135.496 29.7486C135.032 28.9673 134.8 28.0795 134.8 27.0852V17.4545H136.562V26.9432C136.562 27.6534 136.718 28.2855 137.031 28.8395C137.343 29.3887 137.788 29.822 138.366 30.1392C138.948 30.4517 139.644 30.608 140.454 30.608C141.263 30.608 141.96 30.4517 142.542 30.1392C143.124 29.822 143.569 29.3887 143.877 28.8395C144.19 28.2855 144.346 27.6534 144.346 26.9432V17.4545ZM149.625 32V17.4545H154.539C155.676 17.4545 156.609 17.6487 157.338 18.0369C158.067 18.4205 158.607 18.9484 158.957 19.6207C159.307 20.2931 159.483 21.0578 159.483 21.9148C159.483 22.7718 159.307 23.5317 158.957 24.1946C158.607 24.8575 158.069 25.3783 157.345 25.7571C156.62 26.1312 155.695 26.3182 154.568 26.3182H150.591V24.7273H154.511C155.288 24.7273 155.913 24.6136 156.386 24.3864C156.864 24.1591 157.21 23.8371 157.423 23.4205C157.641 22.9991 157.75 22.4972 157.75 21.9148C157.75 21.3324 157.641 20.8234 157.423 20.3878C157.205 19.9522 156.857 19.616 156.379 19.3793C155.901 19.1378 155.269 19.017 154.483 19.017H151.386V32H149.625ZM156.471 25.4659L160.051 32H158.005L154.483 25.4659H156.471ZM170.372 21.0909C170.287 20.3712 169.941 19.8125 169.335 19.4148C168.729 19.017 167.986 18.8182 167.105 18.8182C166.461 18.8182 165.898 18.9223 165.415 19.1307C164.937 19.339 164.563 19.6255 164.293 19.9901C164.027 20.3546 163.895 20.7689 163.895 21.233C163.895 21.6212 163.987 21.955 164.172 22.2344C164.361 22.509 164.603 22.7386 164.896 22.9233C165.19 23.1032 165.498 23.2524 165.82 23.3707C166.142 23.4844 166.438 23.5767 166.707 23.6477L168.185 24.0455C168.563 24.1449 168.985 24.2822 169.449 24.4574C169.918 24.6326 170.365 24.8717 170.791 25.1747C171.222 25.473 171.577 25.8565 171.857 26.3253C172.136 26.794 172.276 27.3693 172.276 28.0511C172.276 28.8371 172.07 29.5473 171.658 30.1818C171.25 30.8163 170.654 31.3205 169.868 31.6946C169.087 32.0687 168.137 32.2557 167.02 32.2557C165.978 32.2557 165.076 32.0876 164.314 31.7514C163.556 31.4152 162.96 30.9465 162.524 30.3452C162.093 29.7438 161.849 29.0455 161.793 28.25H163.611C163.658 28.7992 163.843 29.2538 164.165 29.6136C164.491 29.9687 164.903 30.2339 165.401 30.4091C165.902 30.5795 166.442 30.6648 167.02 30.6648C167.692 30.6648 168.296 30.5559 168.831 30.3381C169.366 30.1155 169.79 29.8078 170.102 29.4148C170.415 29.017 170.571 28.553 170.571 28.0227C170.571 27.5398 170.436 27.1468 170.166 26.8438C169.896 26.5407 169.541 26.2945 169.101 26.1051C168.661 25.9157 168.185 25.75 167.673 25.608L165.884 25.0966C164.747 24.7699 163.848 24.3035 163.185 23.6974C162.522 23.0914 162.19 22.2983 162.19 21.3182C162.19 20.5038 162.411 19.7936 162.851 19.1875C163.296 18.5767 163.893 18.1032 164.641 17.767C165.393 17.4261 166.234 17.2557 167.162 17.2557C168.099 17.2557 168.933 17.4238 169.662 17.7599C170.391 18.0914 170.969 18.5459 171.395 19.1236C171.826 19.7012 172.053 20.357 172.077 21.0909H170.372Z" fill="white"/>
<path d="M31.8 18.0001L23.4 22.2254V13.7748L31.8 18.0001Z" stroke="#CDDE06" stroke-width="5.82924" stroke-linecap="round" stroke-linejoin="round"/>
<path d="M3 19.4948V16.5052C3 10.3883 3 7.32988 5.17318 5.362C7.34638 3.39412 10.7677 3.30893 17.6105 3.13857C20.853 3.05784 24.1651 3 27 3C29.8349 3 33.1471 3.05784 36.3895 3.13857C43.2322 3.30893 46.6536 3.39412 48.8268 5.362C51 7.32988 51 10.3883 51 16.5052V19.4948C51 25.6116 51 28.6701 48.8268 30.6378C46.6536 32.6058 43.2324 32.6909 36.3898 32.8614C33.1471 32.9421 29.8349 33 27 33C24.1651 33 20.8528 32.9421 17.6102 32.8614C10.7676 32.6909 7.34633 32.6058 5.17315 30.6378C3 28.6701 3 25.6116 3 19.4948Z" stroke="#CDDE06" stroke-width="5.82924"/>
</svg>
