<svg width="54" height="36" viewBox="0 0 54 36" fill="none" xmlns="http://www.w3.org/2000/svg">
<path d="M31.8 18.0001L23.4 22.2254V13.7748L31.8 18.0001Z" stroke="#CDDE06" stroke-width="5.82924" stroke-linecap="round" stroke-linejoin="round"/>
<path d="M3 19.4948V16.5052C3 10.3883 3 7.32988 5.17318 5.362C7.34638 3.39412 10.7677 3.30893 17.6105 3.13857C20.853 3.05784 24.1651 3 27 3C29.8349 3 33.1471 3.05784 36.3895 3.13857C43.2322 3.30893 46.6536 3.39412 48.8268 5.362C51 7.32988 51 10.3883 51 16.5052V19.4948C51 25.6116 51 28.6701 48.8268 30.6378C46.6536 32.6058 43.2324 32.6909 36.3898 32.8614C33.1471 32.9421 29.8349 33 27 33C24.1651 33 20.8528 32.9421 17.6102 32.8614C10.7676 32.6909 7.34633 32.6058 5.17315 30.6378C3 28.6701 3 25.6116 3 19.4948Z" stroke="#CDDE06" stroke-width="5.82924"/>
</svg>
